<svg xmlns="http://www.w3.org/2000/svg" viewBox="0 0 120 120" fill="none">
  <!-- EU Flag background -->
  <rect x="8" y="20" width="104" height="64" rx="6" fill="#003399"/>
  <!-- Stars -->
  <g fill="#FFCC00" transform="translate(0,-4)">
    <polygon points="60,28 61.5,32 66,32 62.5,35 64,39 60,36.5 56,39 57.5,35 54,32 58.5,32"/>
    <polygon points="44,32 45.5,36 50,36 46.5,39 48,43 44,40.5 40,43 41.5,39 38,36 42.5,36"/>
    <polygon points="76,32 77.5,36 82,36 78.5,39 80,43 76,40.5 72,43 73.5,39 70,36 74.5,36"/>
  </g>
  <!-- TRACES text -->
  <text x="60" y="60" text-anchor="middle" fill="#fff" font-family="Arial,sans-serif" font-size="14" font-weight="700" letter-spacing="2">TRACES</text>
  <text x="60" y="74" text-anchor="middle" fill="#FFCC00" font-family="Arial,sans-serif" font-size="10" font-weight="600">NT</text>
  <!-- Subtitle -->
  <text x="60" y="103" text-anchor="middle" fill="#90CAF9" font-family="Arial,sans-serif" font-size="7.5" font-weight="500">EU Commission</text>
  <text x="60" y="114" text-anchor="middle" fill="#64B5F6" font-family="Arial,sans-serif" font-size="6.5">Certification Platform</text>
</svg>
